# This file uses centimeters as units for non-parametric coordinates.

mtllib Mountian.mtl
g default
v -5.666485 6.136045 5.366542
v -4.993447 6.534420 5.446906
v -4.059243 5.496813 5.394929
v -3.033261 4.472253 5.209062
v -1.791824 3.351552 5.429654
v -0.630394 2.256807 5.461386
v 0.641948 1.003957 5.334197
v 1.904139 0.138564 5.121925
v 2.970698 -0.057174 5.020040
v 4.001846 -0.017904 5.013192
v 5.012080 -0.000263 5.012190
v -6.179370 6.005684 4.446805
v -5.471859 6.723897 4.557925
v -4.510779 6.286413 4.559684
v -3.089250 5.055835 4.260594
v -1.793263 4.416035 4.683898
v -0.668712 3.293762 4.775396
v 0.514963 1.920316 4.640601
v 1.873315 0.440592 4.239457
v 2.953121 -0.017042 4.033768
v 3.987770 -0.013450 4.007555
v 5.009421 0.000691 4.009331
v -6.572136 6.247800 2.817181
v -5.860428 6.625322 3.423213
v -4.691766 6.524424 3.456781
v -2.859978 7.812848 3.246182
v -1.646462 4.219492 3.802711
v -0.593822 3.411836 3.980413
v 0.772817 4.757980 3.765737
v 1.891070 0.682320 3.243710
v 2.950848 0.113137 3.005854
v 3.975922 0.048185 2.989082
v 5.000609 0.017764 3.003288
v -6.751944 6.194774 1.795183
v -5.534484 7.007882 2.044916
v -3.952464 6.281706 2.019135
v -2.199549 4.450124 1.975683
v -1.383945 3.604154 2.624057
v -0.439887 3.628096 2.924021
v 0.670529 2.861743 2.699238
v 1.893877 1.240025 2.088515
v 2.952080 3.021296 1.882501
v 3.981957 0.188373 1.951069
v 4.998410 0.048724 1.993092
v -7.008189 6.356605 0.889770
v -6.319285 6.953332 1.124458
v -5.257289 7.001688 1.312569
v -3.157770 5.544611 1.077608
v -1.450979 3.967032 0.875678
v -0.418721 3.626659 1.097169
v 0.571763 3.530999 1.241594
v 1.824848 2.395692 0.929914
v 2.983068 0.885892 0.826899
v 4.002859 0.303059 0.913686
v 5.005173 0.076337 0.979959
v -7.128501 6.485683 -0.177734
v -6.235289 7.008221 0.127006
v -5.235885 6.920122 0.289163
v -3.592872 8.193467 0.090382
v -1.686613 4.067452 -0.352944
v -0.501687 3.767542 -0.283080
v 0.450518 5.985959 -0.079787
v 1.688709 3.254585 -0.033153
v 2.963088 1.288078 -0.150749
v 4.021349 0.290875 -0.070310
v 5.007874 0.072110 -0.015920
v -7.033042 6.296092 -0.781158
v -6.255031 6.829427 -0.693998
v -4.740853 6.577652 -0.402667
v -2.659705 4.263889 -1.285845
v -1.417967 3.371559 -1.683059
v -0.378885 3.624757 -1.536857
v 0.535111 3.800937 -1.261305
v 1.641146 3.217178 -1.054217
v 2.929533 1.274422 -1.076076
v 4.020913 0.198252 -1.048078
v 5.015838 0.038991 -1.013450
v -7.437370 6.231626 -1.362588
v -6.244225 6.726339 -1.477704
v -4.011740 5.519429 -1.421403
v -2.137749 4.233770 -2.704510
v -1.094610 5.863485 -2.712019
v -0.323557 3.335297 -2.534116
v 0.548323 3.308134 -2.223830
v 1.663728 2.432387 -1.975437
v 3.328963 3.612836 -1.984671
v 4.017038 0.078900 -2.006747
v 5.013818 0.003144 -2.006092
v -7.603014 6.081807 -2.467131
v -6.885332 6.641063 -2.227558
v -5.770280 6.525345 -1.702617
v -2.720973 4.581053 -2.685958
v -1.268906 3.459794 -3.369411
v -0.325809 2.930969 -3.170963
v 0.716941 2.142795 -2.866931
v 1.949500 1.015952 -2.806986
v 3.048761 0.130781 -2.915033
v 4.048360 -0.046384 -2.980209
v 5.023287 -0.023128 -3.004058
v -7.668415 6.093715 -3.506874
v -7.000097 6.626033 -3.290484
v -5.649128 7.881437 -3.302324
v -2.663766 4.754454 -3.634112
v -1.125132 3.070861 -3.932471
v 0.105292 2.217743 -3.723429
v 1.243000 1.280569 -3.606704
v 2.223879 0.482181 -3.719473
v 3.144313 -0.049356 -3.895467
v 4.090160 -0.151318 -3.976998
v 5.034428 -0.046309 -4.003240
v -7.118095 5.636481 -4.699450
v -6.347360 6.250563 -4.499483
v -4.428802 5.554539 -4.321311
v -2.442351 3.936842 -4.863695
v -0.833191 2.652256 -4.752906
v 0.365123 1.497205 -4.626553
v 1.426902 0.807892 -4.590805
v 2.331074 0.295218 -4.733131
v 3.186377 -0.148396 -4.913356
v 4.094562 -0.177026 -4.986395
v 5.033412 -0.044194 -5.005971
vt 0.000000 0.000000
vt 0.100000 0.000000
vt 0.200000 0.000000
vt 0.300000 0.000000
vt 0.400000 0.000000
vt 0.500000 0.000000
vt 0.600000 0.000000
vt 0.700000 0.000000
vt 0.800000 0.000000
vt 0.900000 0.000000
vt 1.000000 0.000000
vt 0.000000 0.100000
vt 0.100000 0.100000
vt 0.200000 0.100000
vt 0.300000 0.100000
vt 0.400000 0.100000
vt 0.500000 0.100000
vt 0.600000 0.100000
vt 0.700000 0.100000
vt 0.800000 0.100000
vt 0.900000 0.100000
vt 1.000000 0.100000
vt 0.000000 0.200000
vt 0.100000 0.200000
vt 0.200000 0.200000
vt 0.300000 0.200000
vt 0.400000 0.200000
vt 0.500000 0.200000
vt 0.600000 0.200000
vt 0.700000 0.200000
vt 0.800000 0.200000
vt 0.900000 0.200000
vt 1.000000 0.200000
vt 0.000000 0.300000
vt 0.100000 0.300000
vt 0.200000 0.300000
vt 0.300000 0.300000
vt 0.400000 0.300000
vt 0.500000 0.300000
vt 0.600000 0.300000
vt 0.700000 0.300000
vt 0.800000 0.300000
vt 0.900000 0.300000
vt 1.000000 0.300000
vt 0.000000 0.400000
vt 0.100000 0.400000
vt 0.200000 0.400000
vt 0.300000 0.400000
vt 0.400000 0.400000
vt 0.500000 0.400000
vt 0.600000 0.400000
vt 0.700000 0.400000
vt 0.800000 0.400000
vt 0.900000 0.400000
vt 1.000000 0.400000
vt 0.000000 0.500000
vt 0.100000 0.500000
vt 0.200000 0.500000
vt 0.300000 0.500000
vt 0.400000 0.500000
vt 0.500000 0.500000
vt 0.600000 0.500000
vt 0.700000 0.500000
vt 0.800000 0.500000
vt 0.900000 0.500000
vt 1.000000 0.500000
vt 0.000000 0.600000
vt 0.100000 0.600000
vt 0.200000 0.600000
vt 0.300000 0.600000
vt 0.400000 0.600000
vt 0.500000 0.600000
vt 0.600000 0.600000
vt 0.700000 0.600000
vt 0.800000 0.600000
vt 0.900000 0.600000
vt 1.000000 0.600000
vt 0.000000 0.700000
vt 0.100000 0.700000
vt 0.200000 0.700000
vt 0.300000 0.700000
vt 0.400000 0.700000
vt 0.500000 0.700000
vt 0.600000 0.700000
vt 0.700000 0.700000
vt 0.800000 0.700000
vt 0.900000 0.700000
vt 1.000000 0.700000
vt 0.000000 0.800000
vt 0.100000 0.800000
vt 0.200000 0.800000
vt 0.300000 0.800000
vt 0.400000 0.800000
vt 0.500000 0.800000
vt 0.600000 0.800000
vt 0.700000 0.800000
vt 0.800000 0.800000
vt 0.900000 0.800000
vt 1.000000 0.800000
vt 0.000000 0.900000
vt 0.100000 0.900000
vt 0.200000 0.900000
vt 0.300000 0.900000
vt 0.400000 0.900000
vt 0.500000 0.900000
vt 0.600000 0.900000
vt 0.700000 0.900000
vt 0.800000 0.900000
vt 0.900000 0.900000
vt 1.000000 0.900000
vt 0.000000 1.000000
vt 0.100000 1.000000
vt 0.200000 1.000000
vt 0.300000 1.000000
vt 0.400000 1.000000
vt 0.500000 1.000000
vt 0.600000 1.000000
vt 0.700000 1.000000
vt 0.800000 1.000000
vt 0.900000 1.000000
vt 1.000000 1.000000
vn 0.347750 0.907809 0.234421
vn -0.183799 0.972085 0.145838
vn -0.608467 0.704348 0.365598
vn -0.686430 0.685747 0.242002
vn 0.683041 0.669140 0.292755
vn 0.617337 0.775317 0.133338
vn 0.460256 0.705730 0.538618
vn 0.391122 0.503299 0.770528
vn 0.421688 0.518383 0.743948
vn 0.511583 0.765529 0.390189
vn 0.561170 0.488772 0.667975
vn 0.625139 0.612489 0.483796
vn 0.654227 0.555953 0.512741
vn 0.669525 0.305936 0.676860
vn 0.424262 0.861187 0.279926
vn 0.591533 0.768225 0.244782
vn 0.156426 0.982973 0.096410
vn 0.239325 0.967336 0.083579
vn -0.017737 0.999765 0.012479
vn -0.002731 0.999617 0.027524
vn -0.017459 0.999847 0.000997
vn -0.014758 0.999842 0.009946
vn -0.337385 0.926932 0.164220
vn -0.545134 0.829179 0.123662
vn -0.009859 0.918652 0.394945
vn 0.496783 0.864146 0.080364
vn 0.836489 0.545432 0.052831
vn 0.080480 0.728970 0.679798
vn 0.645035 0.651213 0.399814
vn 0.781912 0.541466 0.308913
vn 0.405525 0.665053 0.627099
vn 0.051861 0.994294 0.093215
vn 0.018290 0.999230 0.034708
vn -0.591527 0.770598 0.237220
vn -0.063454 0.984804 0.161665
vn 0.340744 0.766262 -0.544735
vn 0.823448 0.521123 -0.224421
vn 0.421175 0.901794 -0.096846
vn 0.082029 0.966660 -0.242567
vn 0.796822 0.542139 -0.266759
vn 0.235926 0.618522 0.749513
vn 0.444228 0.871322 0.208472
vn 0.707194 0.661983 0.248304
vn 0.107173 0.992612 0.056874
vn -0.422883 0.882621 0.205305
vn -0.680370 0.699572 0.218395
vn 0.386935 0.921896 -0.019726
vn 0.708829 0.544272 0.448697
vn 0.526054 0.848035 0.064059
vn 0.160074 0.983796 0.080753
vn 0.396815 0.731433 0.554567
vn 0.650689 0.731356 0.204260
vn 0.784342 0.530079 -0.322216
vn 0.369128 0.927734 0.055268
vn 0.196749 0.979800 0.035793
vn -0.543482 0.834500 -0.090754
vn -0.210070 0.973713 -0.088054
vn 0.036509 0.938088 0.344467
vn 0.398114 0.915073 0.064400
vn 0.688444 0.683907 -0.241487
vn -0.567749 0.823095 -0.013263
vn 0.119462 0.977794 0.172183
vn 0.842822 0.520390 0.137275
vn 0.776417 0.620325 0.111234
vn 0.470877 0.882190 0.003945
vn 0.218513 0.975672 -0.017808
vn -0.091924 0.980375 -0.174399
vn -0.568039 0.821998 0.040625
vn 0.062548 0.582420 -0.810478
vn 0.646739 0.628681 -0.431844
vn 0.014491 0.885056 0.465258
vn 0.231363 0.934919 0.269067
vn 0.291805 0.680760 -0.671875
vn 0.704965 0.666422 -0.242706
vn 0.717857 0.463918 0.519097
vn 0.495614 0.864529 -0.083410
vn 0.175006 0.983361 -0.048721
vn -0.479275 0.874636 0.072855
vn 0.078817 0.972276 -0.220151
vn 0.573559 0.799123 -0.180090
vn -0.169607 0.983925 0.055902
vn 0.115742 0.988234 -0.099986
vn 0.744430 0.481428 -0.462657
vn 0.439077 0.696566 -0.567457
vn 0.210960 0.691086 -0.691301
vn 0.250639 0.852153 -0.459364
vn 0.765082 0.574809 -0.290246
vn 0.072663 0.994365 -0.077187
vn -0.463001 0.842432 0.275568
vn -0.622079 0.782492 0.026899
vn 0.516393 0.711975 0.475846
vn 0.573595 0.813920 0.092318
vn 0.536394 0.501594 -0.678738
vn 0.536570 0.666141 -0.518023
vn 0.573042 0.574009 -0.584924
vn 0.498742 0.634664 -0.590304
vn 0.444564 0.491853 -0.748628
vn 0.074769 0.991185 -0.109366
vn -0.046023 0.997826 -0.047179
vn -0.427173 0.716317 -0.551736
vn -0.532673 0.785490 -0.315063
vn 0.408987 0.906822 -0.101994
vn 0.646493 0.759526 -0.071878
vn 0.619233 0.736836 -0.271336
vn 0.623374 0.695041 -0.358222
vn 0.601620 0.731976 -0.319788
vn 0.543429 0.815995 -0.197073
vn 0.299024 0.947999 -0.109010
vn -0.005514 0.998009 -0.062826
vn -0.118246 0.992817 -0.018210
vn 0.132962 0.963789 -0.231154
vn -0.459363 0.737672 -0.494798
vn 0.378438 0.599268 -0.705452
vn 0.609345 0.715904 -0.340854
vn 0.623266 0.749762 -0.222253
vn 0.615827 0.710224 -0.341085
vn 0.541134 0.807862 -0.233524
vn 0.470342 0.876998 -0.098246
vn 0.238211 0.969101 -0.064016
vn -0.052736 0.998446 -0.018012
vn -0.140042 0.990143 0.002230
s 1
g pPlane1
usemtl initialShadingGroup
f 2/2/1 13/13/2 1/1/3
f 1/1/3 13/13/2 12/12/4
f 3/3/5 14/14/6 2/2/1
f 2/2/1 14/14/6 13/13/2
f 4/4/7 15/15/8 3/3/5
f 3/3/5 15/15/8 14/14/6
f 5/5/9 16/16/10 4/4/7
f 4/4/7 16/16/10 15/15/8
f 6/6/11 17/17/12 5/5/9
f 5/5/9 17/17/12 16/16/10
f 7/7/13 18/18/14 6/6/11
f 6/6/11 18/18/14 17/17/12
f 8/8/15 19/19/16 7/7/13
f 7/7/13 19/19/16 18/18/14
f 8/8/15 9/9/17 19/19/16
f 19/19/16 9/9/17 20/20/18
f 9/9/17 10/10/19 20/20/18
f 20/20/18 10/10/19 21/21/20
f 11/11/21 22/22/22 10/10/19
f 10/10/19 22/22/22 21/21/20
f 13/13/2 24/24/23 12/12/4
f 12/12/4 24/24/23 23/23/24
f 14/14/6 25/25/25 13/13/2
f 13/13/2 25/25/25 24/24/23
f 14/14/6 15/15/8 25/25/25
f 25/25/25 15/15/8 26/26/26
f 16/16/10 27/27/27 15/15/8
f 15/15/8 27/27/27 26/26/26
f 16/16/10 17/17/12 27/27/27
f 27/27/27 17/17/12 28/28/28
f 17/17/12 18/18/14 28/28/28
f 28/28/28 18/18/14 29/29/29
f 19/19/16 30/30/30 18/18/14
f 18/18/14 30/30/30 29/29/29
f 19/19/16 20/20/18 30/30/30
f 30/30/30 20/20/18 31/31/31
f 21/21/20 32/32/32 20/20/18
f 20/20/18 32/32/32 31/31/31
f 22/22/22 33/33/33 21/21/20
f 21/21/20 33/33/33 32/32/32
f 23/23/24 24/24/23 34/34/34
f 34/34/34 24/24/23 35/35/35
f 24/24/23 25/25/25 35/35/35
f 35/35/35 25/25/25 36/36/36
f 25/25/25 26/26/26 36/36/36
f 36/36/36 26/26/26 37/37/37
f 26/26/26 27/27/27 37/37/37
f 37/37/37 27/27/27 38/38/38
f 28/28/28 39/39/39 27/27/27
f 27/27/27 39/39/39 38/38/38
f 28/28/28 29/29/29 39/39/39
f 39/39/39 29/29/29 40/40/40
f 29/29/29 30/30/30 40/40/40
f 40/40/40 30/30/30 41/41/41
f 30/30/30 31/31/31 41/41/41
f 41/41/41 31/31/31 42/42/42
f 32/32/32 43/43/43 31/31/31
f 31/31/31 43/43/43 42/42/42
f 33/33/33 44/44/44 32/32/32
f 32/32/32 44/44/44 43/43/43
f 35/35/35 46/46/45 34/34/34
f 34/34/34 46/46/45 45/45/46
f 36/36/36 47/47/47 35/35/35
f 35/35/35 47/47/47 46/46/45
f 37/37/37 48/48/48 36/36/36
f 36/36/36 48/48/48 47/47/47
f 38/38/38 49/49/49 37/37/37
f 37/37/37 49/49/49 48/48/48
f 39/39/39 50/50/50 38/38/38
f 38/38/38 50/50/50 49/49/49
f 40/40/40 51/51/51 39/39/39
f 39/39/39 51/51/51 50/50/50
f 41/41/41 52/52/52 40/40/40
f 40/40/40 52/52/52 51/51/51
f 53/53/53 52/52/52 42/42/42
f 41/41/41 42/42/42 52/52/52
f 42/42/42 43/43/43 53/53/53
f 53/53/53 43/43/43 54/54/54
f 44/44/44 55/55/55 43/43/43
f 43/43/43 55/55/55 54/54/54
f 45/45/46 46/46/45 56/56/56
f 56/56/56 46/46/45 57/57/57
f 46/46/45 47/47/47 57/57/57
f 57/57/57 47/47/47 58/58/58
f 47/47/47 48/48/48 58/58/58
f 58/58/58 48/48/48 59/59/59
f 49/49/49 60/60/60 48/48/48
f 48/48/48 60/60/60 59/59/59
f 50/50/50 61/61/61 49/49/49
f 49/49/49 61/61/61 60/60/60
f 50/50/50 51/51/51 61/61/61
f 61/61/61 51/51/51 62/62/62
f 52/52/52 63/63/63 51/51/51
f 51/51/51 63/63/63 62/62/62
f 53/53/53 64/64/64 52/52/52
f 52/52/52 64/64/64 63/63/63
f 54/54/54 65/65/65 53/53/53
f 53/53/53 65/65/65 64/64/64
f 55/55/55 66/66/66 54/54/54
f 54/54/54 66/66/66 65/65/65
f 57/57/57 68/68/67 56/56/56
f 56/56/56 68/68/67 67/67/68
f 57/57/57 58/58/58 68/68/67
f 68/68/67 58/58/58 69/69/69
f 58/58/58 59/59/59 69/69/69
f 69/69/69 59/59/59 70/70/70
f 59/59/59 60/60/60 70/70/70
f 70/70/70 60/60/60 71/71/71
f 60/60/60 61/61/61 71/71/71
f 71/71/71 61/61/61 72/72/72
f 62/62/62 73/73/73 61/61/61
f 61/61/61 73/73/73 72/72/72
f 62/62/62 63/63/63 73/73/73
f 73/73/73 63/63/63 74/74/74
f 63/63/63 64/64/64 74/74/74
f 74/74/74 64/64/64 75/75/75
f 65/65/65 76/76/76 64/64/64
f 64/64/64 76/76/76 75/75/75
f 66/66/66 77/77/77 65/65/65
f 65/65/65 77/77/77 76/76/76
f 67/67/68 68/68/67 78/78/78
f 78/78/78 68/68/67 79/79/79
f 68/68/67 69/69/69 79/79/79
f 79/79/79 69/69/69 80/80/80
f 69/69/69 70/70/70 80/80/80
f 80/80/80 70/70/70 81/81/81
f 70/70/70 71/71/71 81/81/81
f 81/81/81 71/71/71 82/82/82
f 71/71/71 72/72/72 82/82/82
f 72/72/72 83/83/83 82/82/82
f 73/73/73 84/84/84 72/72/72
f 72/72/72 84/84/84 83/83/83
f 73/73/73 74/74/74 84/84/84
f 84/84/84 74/74/74 85/85/85
f 74/74/74 75/75/75 85/85/85
f 75/75/75 86/86/86 85/85/85
f 76/76/76 87/87/87 75/75/75
f 75/75/75 87/87/87 86/86/86
f 77/77/77 88/88/88 76/76/76
f 76/76/76 88/88/88 87/87/87
f 79/79/79 90/90/89 78/78/78
f 78/78/78 90/90/89 89/89/90
f 80/80/80 91/91/91 79/79/79
f 79/79/79 91/91/91 90/90/89
f 81/81/81 92/92/92 80/80/80
f 80/80/80 92/92/92 91/91/91
f 82/82/82 93/93/93 81/81/81
f 81/81/81 93/93/93 92/92/92
f 82/82/82 83/83/83 93/93/93
f 93/93/93 83/83/83 94/94/94
f 83/83/83 84/84/84 94/94/94
f 94/94/94 84/84/84 95/95/95
f 84/84/84 85/85/85 95/95/95
f 95/95/95 85/85/85 96/96/96
f 86/86/86 97/97/97 85/85/85
f 85/85/85 97/97/97 96/96/96
f 86/86/86 87/87/87 97/97/97
f 97/97/97 87/87/87 98/98/98
f 87/87/87 88/88/88 98/98/98
f 98/98/98 88/88/88 99/99/99
f 90/90/89 101/101/100 89/89/90
f 89/89/90 101/101/100 100/100/101
f 91/91/91 102/102/102 90/90/89
f 90/90/89 102/102/102 101/101/100
f 92/92/92 103/103/103 91/91/91
f 91/91/91 103/103/103 102/102/102
f 92/92/92 93/93/93 103/103/103
f 103/103/103 93/93/93 104/104/104
f 93/93/93 94/94/94 104/104/104
f 104/104/104 94/94/94 105/105/105
f 94/94/94 95/95/95 105/105/105
f 105/105/105 95/95/95 106/106/106
f 95/95/95 96/96/96 106/106/106
f 106/106/106 96/96/96 107/107/107
f 96/96/96 97/97/97 107/107/107
f 107/107/107 97/97/97 108/108/108
f 97/97/97 98/98/98 108/108/108
f 108/108/108 98/98/98 109/109/109
f 98/98/98 99/99/99 109/109/109
f 109/109/109 99/99/99 110/110/110
f 101/101/100 112/112/111 100/100/101
f 100/100/101 112/112/111 111/111/112
f 102/102/102 113/113/113 101/101/100
f 101/101/100 113/113/113 112/112/111
f 102/102/102 103/103/103 113/113/113
f 113/113/113 103/103/103 114/114/114
f 103/103/103 104/104/104 114/114/114
f 114/114/114 104/104/104 115/115/115
f 104/104/104 105/105/105 115/115/115
f 115/115/115 105/105/105 116/116/116
f 105/105/105 106/106/106 116/116/116
f 116/116/116 106/106/106 117/117/117
f 106/106/106 107/107/107 117/117/117
f 117/117/117 107/107/107 118/118/118
f 107/107/107 108/108/108 118/118/118
f 118/118/118 108/108/108 119/119/119
f 108/108/108 109/109/109 119/119/119
f 119/119/119 109/109/109 120/120/120
f 109/109/109 110/110/110 120/120/120
f 120/120/120 110/110/110 121/121/121
